# xmcd
#
# Track frame offsets: 
#        150
#        12690
#        26442
#        39832
#        53382
#        66527
#        81142
#        95812
#        108967
#        122807
#        138007
#        152992
#        166167
#        178195
#        191082
#        205072
#        217815
#        231402
#        245900
#        260497
#        275557
#        291202
#        305042
#        318315
#
# Disc length: 4413 seconds
#
# Revision: 0
# Processed by: cddbd v1.5.2PL0 Copyright (c) Steve Scherf et al.
# Submitted via: ExactAudioCopy v1.0b3
#
DISCID=62113b18
DTITLE=Billie Holiday - The Legacy (1933 - 1958) CD-1
DYEAR=1991
DGENRE=Blues
TTITLE0=Your Mother's Son-In-Law
TTITLE1=I Wished on The Moon
TTITLE2=What a Little Moonlight Can Do
TTITLE3=Miss Brown to You
TTITLE4=Saddest Tale
TTITLE5=If You Were Mine
TTITLE6=These 'n' That 'n' Those
TTITLE7=You Let Me Down
TTITLE8=Live Begins When You're In Love
TTITLE9=It's Like Reaching For The Moon
TTITLE10=These Foolish Things
TTITLE11=Summertime
TTITLE12=Billie's Blues
TTITLE13=A Fine Romance
TTITLE14=I Can't Pretend
TTITLE15=One, Tow, Button Your Shoe
TTITLE16=Let's Call a Heart a Heart
TTITLE17=Easy to Love
TTITLE18=Pennies From Heaven
TTITLE19=That's Life, I Guess
TTITLE20=I Can't Give You Anything But Love Baby
TTITLE21=One Never Knows, Does One?
TTITLE22=I've Got My Love to Keep Me Warm
TTITLE23=He Ain't Got Rhythm
EXTD=
EXTT0=
EXTT1=
EXTT2=
EXTT3=
EXTT4=
EXTT5=
EXTT6=
EXTT7=
EXTT8=
EXTT9=
EXTT10=
EXTT11=
EXTT12=
EXTT13=
EXTT14=
EXTT15=
EXTT16=
EXTT17=
EXTT18=
EXTT19=
EXTT20=
EXTT21=
EXTT22=
EXTT23=
PLAYORDER=
